HIERARCHY
ROOT Hips
{
	OFFSET 54.398102 -12.398015 95.764297
	CHANNELS 6 Xposition Yposition Zposition Xrotation Yrotation Zrotation
	JOINT spine
	{
		OFFSET 0.000000 -0.458069 7.965683
		CHANNELS 3 Xrotation Yrotation Zrotation
		JOINT spine1
		{
			OFFSET 0.000000 -0.000001 10.243103
			CHANNELS 3 Xrotation Yrotation Zrotation
			JOINT spine2
			{
				OFFSET 0.000000 -0.000002 9.814751
				CHANNELS 3 Xrotation Yrotation Zrotation
				JOINT Neck
				{
					OFFSET 0.000000 -1.201384 25.198601
					CHANNELS 3 Xrotation Yrotation Zrotation
					JOINT Head
					{
						OFFSET 0.000000 -0.000002 7.613144
						CHANNELS 3 Xrotation Yrotation Zrotation
						End Site
						{
							OFFSET 0.000000 6.077327 18.428101
						}
					}
				}
				JOINT RightShoulder
				{
					OFFSET -4.132698 0.575449 10.599205
					CHANNELS 3 Xrotation Yrotation Zrotation
					JOINT RightArm
					{
						OFFSET 0.000000 -0.000002 13.901794
						CHANNELS 3 Xrotation Yrotation Zrotation
						JOINT RightArmRoll
						{
							OFFSET 0.000000 -0.000002 7.017883
							CHANNELS 3 Xrotation Yrotation Zrotation
							JOINT RightForeArm
							{
								OFFSET 0.000000 -0.000003 20.440598
								CHANNELS 3 Xrotation Yrotation Zrotation
								JOINT RightForeArmRoll
								{
									OFFSET 0.000000 -0.000001 7.875153
									CHANNELS 3 Xrotation Yrotation Zrotation
									JOINT RightHand
									{
										OFFSET 0.000000 -0.000003 15.803696
										CHANNELS 3 Xrotation Yrotation Zrotation
										End Site
										{
											OFFSET 0.000000 0.000000 0.100006
										}
									}
								}
							}
						}
					}
				}
				JOINT LeftShoulder
				{
					OFFSET 4.132698 0.575449 10.599205
					CHANNELS 3 Xrotation Yrotation Zrotation
					JOINT LeftArm
					{
						OFFSET 0.000000 -0.000002 13.901794
						CHANNELS 3 Xrotation Yrotation Zrotation
						JOINT LeftArmRoll
						{
							OFFSET 0.000000 -0.000002 7.017883
							CHANNELS 3 Xrotation Yrotation Zrotation
							JOINT LeftForeArm
							{
								OFFSET 0.000000 -0.000003 20.440598
								CHANNELS 3 Xrotation Yrotation Zrotation
								JOINT LeftForeArmRoll
								{
									OFFSET 0.000000 -0.000001 7.875153
									CHANNELS 3 Xrotation Yrotation Zrotation
									JOINT LeftHand
									{
										OFFSET 0.000000 -0.000003 15.803696
										CHANNELS 3 Xrotation Yrotation Zrotation
										End Site
										{
											OFFSET 0.000000 0.000000 0.100006
										}
									}
								}
							}
						}
					}
				}
			}
		}
	}
	JOINT RightUpLeg
	{
		OFFSET -7.060478 1.086100 -1.294701
		CHANNELS 3 Xrotation Yrotation Zrotation
		JOINT RightUpLegRoll
		{
			OFFSET 0.000000 -0.000003 18.530800
			CHANNELS 3 Xrotation Yrotation Zrotation
			JOINT RightLeg
			{
				OFFSET 0.000000 0.000004 -22.947601
				CHANNELS 3 Xrotation Yrotation Zrotation
				JOINT RightLegRoll
				{
					OFFSET 0.000000 -0.000004 23.022598
					CHANNELS 3 Xrotation Yrotation Zrotation
					JOINT RightFoot
					{
						OFFSET 0.000000 -0.000004 19.162506
						CHANNELS 3 Xrotation Yrotation Zrotation
						JOINT RightToeBase
						{
							OFFSET 0.000000 -0.000002 16.018799
							CHANNELS 3 Xrotation Yrotation Zrotation
							End Site
							{
								OFFSET 0.006790 0.894205 7.757828
							}
						}
					}
				}
			}
		}
	}
	JOINT LeftUpLeg
	{
		OFFSET 7.060478 1.086100 -1.294701
		CHANNELS 3 Xrotation Yrotation Zrotation
		JOINT LeftUpLegRoll
		{
			OFFSET 0.000000 -0.000003 18.530899
			CHANNELS 3 Xrotation Yrotation Zrotation
			JOINT LeftLeg
			{
				OFFSET 0.000000 -0.000004 22.947502
				CHANNELS 3 Xrotation Yrotation Zrotation
				JOINT LeftLegRoll
				{
					OFFSET 0.000000 -0.000004 23.235504
					CHANNELS 3 Xrotation Yrotation Zrotation
					JOINT LeftFoot
					{
						OFFSET 0.000000 -0.000003 18.949600
						CHANNELS 3 Xrotation Yrotation Zrotation
						JOINT LeftToeBase
						{
							OFFSET 0.000000 -0.000003 16.018799
							CHANNELS 3 Xrotation Yrotation Zrotation
							End Site
							{
								OFFSET -0.030430 0.894206 7.757828
							}
						}
					}
				}
			}
		}
	}
}
MOTION
Frames: 7
Frame Time: 0.041667
54.365997 -11.024414 95.821899 -1.401959 0.772852 -4.871144 -2.255834 -0.249017 -0.038113 -0.494278 -0.506830 -0.073387 1.150825 -0.507717 -0.067052 19.603550 5.343261 0.964753 2.776324 -2.832118 1.412884 10.687161 -69.693666 10.493986 -43.791529 -117.201019 -17.468390 0.000003 0.000011 -0.000002 -0.012305 1.786361 0.178034 -0.000003 -0.000004 -3.040530 -5.000145 -8.000059 -0.000001 -6.051835 75.023351 8.415508 -64.510201 116.144785 30.276781 0.000001 0.000010 -0.000004 -0.088532 -12.744288 -1.494503 0.000002 0.000000 3.025382 -5.000158 8.001064 0.000129 0.892301 -175.286560 -2.172172 -179.999991 0.000005 -1.133000 176.131522 -1.952539 -0.557003 -0.000001 -0.000004 0.035554 69.128153 6.961692 1.935051 25.458671 -7.355620 0.002639 1.171468 174.624100 0.491238 -0.000005 -0.000004 -1.186951 -5.536363 2.210361 0.276476 -0.000002 -0.000003 -0.085007 69.796556 -6.963453 -1.891479 25.456947 7.355614 -0.000011 
54.361397 -11.037117 95.811600 -1.399679 0.773665 -4.876957 -2.256014 -0.248747 -0.038039 -0.495037 -0.506188 -0.073841 1.150065 -0.507077 -0.067243 19.582723 5.399673 0.962817 2.790752 -2.874773 1.416655 10.682406 -69.665682 10.493534 -43.824976 -117.162920 -17.409210 0.000002 0.000011 -0.000002 -0.012669 1.860931 0.185337 -0.000004 -0.000004 -3.040530 -5.000147 -8.000061 0.000001 -6.129141 75.036171 8.500009 -64.556216 116.132108 30.343324 -0.000003 0.000012 -0.000002 -0.088543 -12.713490 -1.491017 0.000003 -0.000001 3.025378 -5.000155 8.001065 0.000129 0.897631 -175.287584 -2.172329 -179.999991 0.000005 -1.133001 176.141344 -1.953571 -0.556737 -0.000001 -0.000004 0.035554 69.129847 6.961669 1.935139 25.458676 -7.355618 0.002641 1.212894 174.622201 0.490656 -0.000005 -0.000004 -1.186941 -5.441006 2.209391 0.271823 -0.000002 -0.000003 -0.082670 69.758505 -6.963509 -1.891578 25.456945 7.355613 -0.000010 
54.357197 -11.036514 95.812393 -1.397532 0.774555 -4.882844 -2.256112 -0.248549 -0.037928 -0.495644 -0.505708 -0.074259 1.149455 -0.506597 -0.067377 19.560455 5.457461 0.960768 2.806576 -2.918921 1.420472 10.677507 -69.636798 10.493050 -43.854660 -117.125832 -17.347151 -0.000000 0.000010 -0.000000 -0.013028 1.935461 0.192640 -0.000001 -0.000005 -3.040534 -5.000146 -8.000060 -0.000000 -6.206229 75.049067 8.584276 -64.600885 116.120224 30.407872 -0.000001 0.000012 -0.000004 -0.088558 -12.683488 -1.487619 0.000001 -0.000001 3.025379 -5.000156 8.001065 0.000129 0.903189 -175.288582 -2.172529 -179.999991 0.000005 -1.133000 176.151289 -1.955583 -0.555534 -0.000001 -0.000004 0.035554 69.131527 6.961649 1.935129 25.458673 -7.355619 0.002641 1.258287 174.621286 0.490072 -0.000005 -0.000005 -1.186941 -5.336195 2.208318 0.266714 -0.000002 -0.000003 -0.080076 69.716861 -6.963582 -1.891704 25.456950 7.355613 -0.000010 
54.356796 -11.039717 95.822189 -1.395487 0.775502 -4.888798 -2.256161 -0.248402 -0.037789 -0.496142 -0.505340 -0.074653 1.148955 -0.506229 -0.067472 19.537024 5.516197 0.958671 2.823383 -2.964135 1.424336 10.672451 -69.607305 10.492504 -43.879724 -117.090643 -17.280725 0.000002 0.000011 -0.000000 -0.013377 2.009961 0.199939 -0.000003 -0.000004 -3.040532 -5.000146 -8.000061 0.000000 -6.283260 75.062140 8.668500 -64.645896 116.108626 30.472534 -0.000000 0.000011 -0.000003 -0.088573 -12.654087 -1.484265 0.000004 -0.000001 3.025381 -5.000158 8.001065 0.000131 0.908904 -175.290590 -2.172780 -179.999991 0.000005 -1.133001 176.161302 -1.956601 -0.555259 -0.000001 -0.000004 0.035554 69.133126 6.961691 1.935037 25.458670 -7.355619 0.002641 1.306465 174.619387 0.489449 -0.000005 -0.000004 -1.186930 -5.224767 2.207181 0.261286 -0.000002 -0.000003 -0.077304 69.672677 -6.963694 -1.891798 25.456950 7.355613 -0.000010 
54.352596 -11.041713 95.829201 -1.393497 0.776478 -4.894782 -2.256181 -0.248285 -0.037637 -0.496579 -0.505036 -0.075031 1.148514 -0.505926 -0.067546 19.513132 5.575487 0.956556 2.840745 -3.009944 1.428246 10.667390 -69.577525 10.491993 -43.901649 -117.056711 -17.211272 0.000001 0.000010 -0.000002 -0.013729 2.084441 0.207235 -0.000005 -0.000004 -3.040529 -5.000146 -8.000061 -0.000000 -6.360313 75.075295 8.752747 -64.691058 116.097138 30.537229 -0.000002 0.000011 -0.000004 -0.088595 -12.624989 -1.480955 0.000001 -0.000001 3.025382 -5.000158 8.001065 0.000128 0.914710 -175.291587 -2.173030 -179.999991 0.000005 -1.133000 176.171342 -1.958627 -0.555050 -0.000001 -0.000004 0.035554 69.134806 6.961670 1.935028 25.458675 -7.355619 0.002641 1.356226 174.618485 0.488838 -0.000005 -0.000005 -1.186931 -5.109557 2.206007 0.255682 -0.000002 -0.000003 -0.074429 69.627133 -6.963769 -1.891972 25.456950 7.355614 -0.000010 
54.350098 -11.042917 95.828499 -1.391520 0.777462 -4.900784 -2.256192 -0.248175 -0.037483 -0.497001 -0.504749 -0.075406 1.148095 -0.505638 -0.067613 19.488956 5.634909 0.954492 2.858237 -3.055901 1.432189 10.662321 -69.547643 10.491485 -43.924830 -117.021986 -17.143459 0.000002 0.000010 -0.000003 -0.014077 2.158919 0.214535 -0.000004 -0.000005 -3.040532 -5.000146 -8.000059 0.000001 -6.437419 75.088429 8.837056 -64.736369 116.085745 30.601966 -0.000001 0.000011 -0.000004 -0.088614 -12.595989 -1.477648 0.000002 -0.000001 3.025382 -5.000158 8.001065 0.000129 0.920536 -175.292598 -2.173289 -179.999991 0.000005 -1.133001 176.181383 -1.959646 -0.553776 -0.000000 -0.000004 0.035553 69.136397 6.961679 1.935127 25.458673 -7.355618 0.002640 1.406390 174.616614 0.488199 -0.000005 -0.000005 -1.186920 -4.993395 2.204809 0.250037 -0.000002 -0.000003 -0.071527 69.581179 -6.963873 -1.892077 25.456950 7.355613 -0.000010 
54.349693 -11.047215 95.820000 -1.389516 0.778430 -4.906758 -2.256224 -0.248050 -0.037335 -0.497452 -0.504429 -0.075788 1.147645 -0.505319 -0.067693 19.465185 5.694069 0.952493 2.875463 -3.101558 1.436149 10.657312 -69.517959 10.491015 -43.948255 -116.987330 -17.075563 0.000003 0.000011 -0.000004 -0.014424 2.233400 0.221838 -0.000003 -0.000004 -3.040529 -5.000144 -8.000059 0.000000 -6.514775 75.101529 8.921606 -64.781626 116.074284 30.666760 -0.000003 0.000013 0.000000 -0.088633 -12.566788 -1.474322 0.000002 -0.000001 3.025380 -5.000158 8.001065 0.000127 0.926319 -175.293609 -2.173539 -179.999991 0.000005 -1.133001 176.191396 -1.961658 -0.553567 -0.000001 -0.000004 0.035554 69.138084 6.961657 1.935118 25.458675 -7.355619 0.002640 1.455761 174.614729 0.487561 -0.000005 -0.000004 -1.186911 -4.879126 2.203604 0.244488 -0.000001 -0.000003 -0.068677 69.535881 -6.964018 -1.892150 25.456953 7.355614 -0.000010 
